<svg width="40" height="40" viewBox="0 0 40 40" fill="none" xmlns="http://www.w3.org/2000/svg">
<g clip-path="url(#clip0_1_228)">
<path fill-rule="evenodd" clip-rule="evenodd" d="M27.5 37.5H28.7498C29.7444 37.5 30.6981 37.105 31.4018 36.4019C32.1047 35.6981 32.4999 34.7444 32.4999 33.75C32.4999 27.6963 32.4999 12.3038 32.4999 6.25C32.4999 5.25563 32.1047 4.30188 31.4018 3.59813C30.6981 2.895 29.7444 2.5 28.7498 2.5C23.7375 2.5 12.5127 2.5 7.50036 2.5C6.50578 2.5 5.55203 2.895 4.84838 3.59813C4.14546 4.30188 3.75024 5.25563 3.75024 6.25C3.75024 12.3038 3.75024 27.6963 3.75024 33.75C3.75024 34.7444 4.14546 35.6981 4.84838 36.4019C5.55203 37.105 6.50578 37.5 7.50036 37.5C10.9224 37.5 17.2406 37.5 22.5001 37.5C23.1899 37.5 23.7499 36.94 23.7499 36.25C23.7499 35.56 23.1899 35 22.5001 35C17.2406 35 10.9224 35 7.50036 35C7.16859 35 6.85068 34.8681 6.61588 34.6338C6.38182 34.3994 6.24984 34.0812 6.24984 33.75C6.24984 27.6963 6.24984 12.3038 6.24984 6.25C6.24984 5.91875 6.38182 5.60062 6.61588 5.36625C6.85068 5.13187 7.16859 5 7.50036 5C12.5127 5 23.7375 5 28.7498 5C29.0816 5 29.3995 5.13187 29.6343 5.36625C29.8683 5.60062 30.0003 5.91875 30.0003 6.25C30.0003 12.3038 30.0003 27.6963 30.0003 33.75C30.0003 34.0812 29.8683 34.3994 29.6343 34.6338C29.3995 34.8681 29.0816 35 28.7498 35C28.3677 35 27.9492 35 27.5 35C26.8102 35 26.2502 35.56 26.2502 36.25C26.2502 36.94 26.8102 37.5 27.5 37.5Z" fill="#F77A40"/>
<path fill-rule="evenodd" clip-rule="evenodd" d="M7.49945 19.375C7.49945 19.03 7.22009 18.75 6.87509 18.75H3.12509C2.78009 18.75 2.50073 19.03 2.50073 19.375V20.625C2.50073 20.97 2.78009 21.25 3.12509 21.25H6.87509C7.22009 21.25 7.49945 20.97 7.49945 20.625V19.375Z" fill="#F77A40"/>
<path fill-rule="evenodd" clip-rule="evenodd" d="M7.49945 13.125C7.49945 12.78 7.22009 12.5 6.87509 12.5H3.12509C2.78009 12.5 2.50073 12.78 2.50073 13.125V14.375C2.50073 14.72 2.78009 15 3.12509 15H6.87509C7.22009 15 7.49945 14.72 7.49945 14.375V13.125Z" fill="#F77A40"/>
<path fill-rule="evenodd" clip-rule="evenodd" d="M7.49945 25.625C7.49945 25.28 7.22009 25 6.87509 25H3.12509C2.78009 25 2.50073 25.28 2.50073 25.625V26.875C2.50073 27.22 2.78009 27.5 3.12509 27.5H6.87509C7.22009 27.5 7.49945 27.22 7.49945 26.875V25.625Z" fill="#F77A40"/>
<path fill-rule="evenodd" clip-rule="evenodd" d="M18.7486 6.2495C13.2296 6.2495 8.74854 10.7306 8.74854 16.2496C8.74854 21.7686 13.2296 26.2497 18.7486 26.2497C24.2677 26.2497 28.7487 21.7686 28.7487 16.2496C28.7487 10.7306 24.2677 6.2495 18.7486 6.2495ZM18.7486 8.7498C22.8881 8.7498 26.2484 12.1101 26.2484 16.2496C26.2484 20.3891 22.8881 23.7494 18.7486 23.7494C14.6092 23.7494 11.2488 20.3891 11.2488 16.2496C11.2488 12.1101 14.6092 8.7498 18.7486 8.7498Z" fill="#F77A40"/>
<path fill-rule="evenodd" clip-rule="evenodd" d="M18.7522 6.2495C17.8128 6.2495 16.8834 6.72236 16.1028 7.69397C14.8116 9.30104 13.8562 12.5207 13.8562 16.2496C13.8562 19.9785 14.8116 23.1981 16.1028 24.8052C16.8834 25.7768 17.8128 26.2497 18.7522 26.2497C19.6916 26.2497 20.621 25.7768 21.4015 24.8052C22.6928 23.1981 23.6482 19.9785 23.6482 16.2496C23.6482 12.5207 22.6928 9.30104 21.4015 7.69397C20.621 6.72236 19.6916 6.2495 18.7522 6.2495ZM18.7522 8.7498C18.9348 8.7498 19.0875 8.87703 19.2471 9.03198C19.453 9.23214 19.6413 9.49536 19.818 9.80635C20.6432 11.2585 21.148 13.6082 21.148 16.2496C21.148 18.891 20.6432 21.2407 19.818 22.6928C19.6413 23.0038 19.453 23.2671 19.2471 23.4672C19.0875 23.6222 18.9348 23.7494 18.7522 23.7494C18.5696 23.7494 18.4169 23.6222 18.2573 23.4672C18.0514 23.2671 17.863 23.0038 17.6864 22.6928C16.8612 21.2407 16.3564 18.891 16.3564 16.2496C16.3564 13.6082 16.8612 11.2585 17.6864 9.80635C17.863 9.49536 18.0514 9.23214 18.2573 9.03198C18.4169 8.87703 18.5696 8.7498 18.7522 8.7498Z" fill="#F77A40"/>
<path fill-rule="evenodd" clip-rule="evenodd" d="M26.266 16.041C26.1887 16.496 25.6819 16.815 25.0392 17.1511C23.5728 17.9182 21.307 18.3848 18.7706 18.3848C16.2342 18.3848 13.9683 17.9182 12.502 17.1511C11.8592 16.815 11.3524 16.496 11.2751 16.041C11.1596 15.3606 10.5135 14.9024 9.83324 15.0176C9.15329 15.1332 8.695 15.7792 8.81021 16.4595C8.95386 17.3035 9.50146 18.1369 10.4669 18.8307C12.1294 20.0251 15.2181 20.8851 18.7706 20.8851C22.3231 20.8851 25.4118 20.0251 27.0743 18.8307C28.0397 18.1369 28.5873 17.3035 28.7309 16.4595C28.8461 15.7792 28.3879 15.1332 27.7079 15.0176C27.0276 14.9024 26.3816 15.3606 26.266 16.041Z" fill="#F77A40"/>
<path fill-rule="evenodd" clip-rule="evenodd" d="M25.8772 11.7277C24.654 12.8539 21.9083 13.5411 18.7485 13.5411C15.5887 13.5411 12.843 12.8539 11.6199 11.7277C11.1124 11.2607 10.3209 11.2931 9.85346 11.801C9.38643 12.3085 9.41887 13.1 9.92673 13.567C11.4503 14.9695 14.8129 16.0414 18.7485 16.0414C22.6842 16.0414 26.0467 14.9695 27.5703 13.567C28.0782 13.1 28.1106 12.3085 27.6436 11.801C27.1762 11.2931 26.3847 11.2607 25.8772 11.7277Z" fill="#F77A40"/>
<path fill-rule="evenodd" clip-rule="evenodd" d="M31.25 8.20375L36.25 9.11249L32.2263 31.25L31.25 31.0725V8.20375Z" fill="#F4B943" fill-opacity="0.5"/>
<path fill-rule="evenodd" clip-rule="evenodd" d="M31.4737 6.97374C31.1087 6.90749 30.7338 7.00688 30.4488 7.24438C30.1644 7.48188 30 7.83313 30 8.20375V31.0725C30 31.6769 30.4319 32.1944 31.0263 32.3025L32.0031 32.48C32.6825 32.6031 33.3331 32.1525 33.4563 31.4738L37.48 9.33624C37.6031 8.65687 37.1525 8.00625 36.4737 7.8825L31.4737 6.97374ZM32.5 22.755L34.7969 10.1188L32.5 9.70188V22.755Z" fill="#F77A40"/>
<path fill-rule="evenodd" clip-rule="evenodd" d="M16.25 30H21.25C21.94 30 22.5 29.44 22.5 28.75C22.5 28.06 21.94 27.5 21.25 27.5H16.25C15.56 27.5 15 28.06 15 28.75C15 29.44 15.56 30 16.25 30Z" fill="#F77A40"/>
<path fill-rule="evenodd" clip-rule="evenodd" d="M15.0001 33.75H22.5001C23.1901 33.75 23.7507 33.19 23.7507 32.5C23.7507 31.81 23.1901 31.25 22.5001 31.25H15.0001C14.3101 31.25 13.7495 31.81 13.7495 32.5C13.7495 33.19 14.3101 33.75 15.0001 33.75Z" fill="#F77A40"/>
</g>
<defs>
<clipPath id="clip0_1_228">
<rect width="40" height="40" fill="white"/>
</clipPath>
</defs>
</svg>
