<svg width="40" height="40" viewBox="0 0 40 40" fill="none" xmlns="http://www.w3.org/2000/svg">
<g clip-path="url(#clip0_1_253)">
<path fill-rule="evenodd" clip-rule="evenodd" d="M20.625 34.9999C20.625 34.3104 21.1852 33.7503 21.8752 33.7503C22.5652 33.7503 23.1253 34.3104 23.1253 34.9999V36.2501C23.1253 36.9402 22.5656 37.5003 21.8752 37.5003H18.1252C17.4347 37.5003 16.875 36.9402 16.875 36.2501V3.75015C16.875 3.06004 17.4347 2.49994 18.1252 2.49994H21.8752C22.5656 2.49994 23.1253 3.06004 23.1253 3.75015V30.0004C23.1253 30.6898 22.5652 31.2499 21.8752 31.2499C21.1852 31.2499 20.625 30.6898 20.625 30.0004V5.00036H19.3753V34.9999H20.625Z" fill="#F77A40"/>
<path fill-rule="evenodd" clip-rule="evenodd" d="M33.125 6.24951H21.875V12.4996H33.125L36.25 9.37454L33.125 6.24951Z" fill="#F4B943" fill-opacity="0.5"/>
<path fill-rule="evenodd" clip-rule="evenodd" d="M34.0087 5.36542C33.7744 5.13133 33.4562 4.99951 33.125 4.99951H21.875C21.1844 4.99951 20.625 5.55918 20.625 6.24952V12.4996C20.625 13.1899 21.1844 13.7496 21.875 13.7496H33.125C33.4562 13.7496 33.7744 13.6178 34.0087 13.3837L37.1337 10.2587C37.6219 9.77001 37.6219 8.9791 37.1337 8.49046L34.0087 5.36542ZM23.125 7.49954V11.2496H32.6075L34.4825 9.37456L32.6075 7.49954H23.125Z" fill="#F77A40"/>
<path fill-rule="evenodd" clip-rule="evenodd" d="M6.875 8.74951C6.54375 8.74951 6.22562 8.88133 5.99125 9.11542L2.86625 12.2405C2.37812 12.7291 2.37812 13.52 2.86625 14.0087L5.99125 17.1337C6.22562 17.3678 6.54375 17.4996 6.875 17.4996H18.125C18.8156 17.4996 19.375 16.9399 19.375 16.2496V9.99952C19.375 9.30918 18.8156 8.74951 18.125 8.74951H6.875ZM7.3925 11.2495L5.5175 13.1246L7.3925 14.9996H16.875V11.2495H7.3925Z" fill="#F77A40"/>
<path fill-rule="evenodd" clip-rule="evenodd" d="M10.0005 37.5H30.0005C30.6905 37.5 31.2505 36.94 31.2505 36.25C31.2505 35.56 30.6905 35 30.0005 35H10.0005C9.31049 35 8.75049 35.56 8.75049 36.25C8.75049 36.94 9.31049 37.5 10.0005 37.5Z" fill="#F77A40"/>
</g>
<defs>
<clipPath id="clip0_1_253">
<rect width="40" height="40" fill="white"/>
</clipPath>
</defs>
</svg>
