<svg width="155" height="31" viewBox="0 0 155 31" fill="none" xmlns="http://www.w3.org/2000/svg">
<path d="M8.756 30.396C6.956 30.396 5.456 30.072 4.256 29.424C3.056 28.752 2.144 27.756 1.52 26.436C0.92 25.092 0.572 23.388 0.476 21.324L5.588 20.46C5.636 21.66 5.756 22.668 5.948 23.484C6.164 24.276 6.476 24.876 6.884 25.284C7.316 25.668 7.844 25.86 8.468 25.86C9.236 25.86 9.752 25.62 10.016 25.14C10.304 24.66 10.448 24.108 10.448 23.484C10.448 22.26 10.148 21.24 9.548 20.424C8.972 19.584 8.204 18.744 7.244 17.904L4.22 15.276C3.14 14.364 2.252 13.332 1.556 12.18C0.884 11.028 0.548 9.612 0.548 7.932C0.548 5.532 1.244 3.696 2.636 2.424C4.052 1.128 5.984 0.479998 8.432 0.479998C9.896 0.479998 11.096 0.719999 12.032 1.2C12.968 1.68 13.688 2.328 14.192 3.144C14.72 3.936 15.08 4.812 15.272 5.772C15.488 6.708 15.62 7.644 15.668 8.58L10.592 9.336C10.544 8.448 10.46 7.668 10.34 6.996C10.244 6.324 10.028 5.796 9.692 5.412C9.38 5.028 8.9 4.836 8.252 4.836C7.556 4.836 7.04 5.1 6.704 5.628C6.368 6.132 6.2 6.696 6.2 7.32C6.2 8.352 6.428 9.204 6.884 9.876C7.364 10.524 8.012 11.208 8.828 11.928L11.78 14.52C13.004 15.576 14.048 16.788 14.912 18.156C15.8 19.5 16.244 21.168 16.244 23.16C16.244 24.528 15.932 25.764 15.308 26.868C14.684 27.972 13.808 28.836 12.68 29.46C11.576 30.084 10.268 30.396 8.756 30.396ZM25.6358 30.36C24.1478 30.36 22.8758 30.096 21.8198 29.568C20.7638 29.016 19.9598 28.224 19.4078 27.192C18.8798 26.16 18.6158 24.876 18.6158 23.34V15.852C18.6158 14.316 18.8798 13.032 19.4078 12C19.9598 10.968 20.7638 10.188 21.8198 9.66C22.8758 9.108 24.1478 8.832 25.6358 8.832C27.1238 8.832 28.3958 9.108 29.4518 9.66C30.5078 10.188 31.3118 10.968 31.8638 12C32.4158 13.032 32.6918 14.316 32.6918 15.852V23.34C32.6918 24.876 32.4158 26.16 31.8638 27.192C31.3118 28.224 30.5078 29.016 29.4518 29.568C28.3958 30.096 27.1238 30.36 25.6358 30.36ZM25.6718 26.688C26.1278 26.688 26.4758 26.568 26.7158 26.328C26.9558 26.064 27.1118 25.716 27.1838 25.284C27.2558 24.828 27.2918 24.312 27.2918 23.736V15.492C27.2918 14.892 27.2558 14.376 27.1838 13.944C27.1118 13.512 26.9558 13.164 26.7158 12.9C26.4758 12.636 26.1278 12.504 25.6718 12.504C25.2158 12.504 24.8678 12.636 24.6278 12.9C24.3878 13.164 24.2198 13.512 24.1238 13.944C24.0518 14.376 24.0158 14.892 24.0158 15.492V23.736C24.0158 24.312 24.0518 24.828 24.1238 25.284C24.2198 25.716 24.3878 26.064 24.6278 26.328C24.8678 26.568 25.2158 26.688 25.6718 26.688ZM39.5211 30.36C38.6811 30.36 37.9731 30.144 37.3971 29.712C36.8451 29.28 36.4371 28.704 36.1731 27.984C35.9091 27.264 35.7771 26.472 35.7771 25.608V9.192H41.2131V24.816C41.2131 25.392 41.3091 25.836 41.5011 26.148C41.6931 26.436 42.0411 26.58 42.5451 26.58C42.8331 26.58 43.1331 26.508 43.4451 26.364C43.7811 26.196 44.1171 26.004 44.4531 25.788V9.192H49.8891V30H44.4531V28.056C43.7331 28.752 42.9531 29.316 42.1131 29.748C41.2971 30.156 40.4331 30.36 39.5211 30.36ZM53.8935 30V0.839998H59.3295V30H53.8935ZM149.649 30V24.708H154.833V30H149.649Z" fill="#2E2E2E"/>
<path d="M66.1937 30V5.268H61.6937V0.839998H76.5977V5.268H72.1697V30H66.1937ZM78.9909 30V9.192H84.4269V12.54C85.1229 11.316 85.8069 10.416 86.4789 9.84C87.1749 9.24 87.9909 8.94 88.9269 8.94C89.0949 8.94 89.2389 8.952 89.3589 8.976C89.5029 8.976 89.6349 9 89.7549 9.048V14.52C89.4909 14.4 89.1909 14.304 88.8549 14.232C88.5189 14.136 88.1709 14.088 87.8109 14.088C87.1389 14.088 86.5269 14.268 85.9749 14.628C85.4229 14.964 84.9069 15.456 84.4269 16.104V30H78.9909ZM96.3128 30.36C95.3288 30.36 94.4768 30.108 93.7568 29.604C93.0608 29.1 92.5328 28.464 92.1728 27.696C91.8128 26.928 91.6328 26.136 91.6328 25.32C91.6328 24.024 91.8848 22.932 92.3888 22.044C92.8928 21.156 93.5528 20.412 94.3688 19.812C95.1848 19.212 96.0968 18.696 97.1048 18.264C98.1128 17.832 99.1208 17.436 100.129 17.076V15.132C100.129 14.676 100.093 14.28 100.021 13.944C99.9488 13.608 99.8048 13.356 99.5888 13.188C99.3968 12.996 99.1088 12.9 98.7248 12.9C98.3408 12.9 98.0408 12.984 97.8248 13.152C97.6328 13.296 97.4888 13.524 97.3928 13.836C97.3208 14.124 97.2728 14.448 97.2488 14.808L97.1408 16.248L91.9928 16.032C92.1128 13.584 92.7488 11.772 93.9008 10.596C95.0768 9.42 96.8408 8.832 99.1928 8.832C101.305 8.832 102.865 9.42 103.873 10.596C104.881 11.748 105.385 13.272 105.385 15.168V24.852C105.385 25.668 105.397 26.4 105.421 27.048C105.469 27.672 105.517 28.236 105.565 28.74C105.637 29.22 105.697 29.64 105.745 30H100.849C100.777 29.472 100.693 28.896 100.597 28.272C100.501 27.648 100.429 27.228 100.381 27.012C100.141 27.876 99.6848 28.656 99.0128 29.352C98.3408 30.024 97.4408 30.36 96.3128 30.36ZM98.2928 26.508C98.5568 26.508 98.8088 26.448 99.0488 26.328C99.2888 26.208 99.4928 26.052 99.6608 25.86C99.8528 25.668 100.009 25.488 100.129 25.32V19.596C99.6248 19.908 99.1568 20.22 98.7248 20.532C98.2928 20.82 97.9208 21.144 97.6088 21.504C97.2968 21.864 97.0568 22.26 96.8888 22.692C96.7208 23.124 96.6368 23.616 96.6368 24.168C96.6368 24.888 96.7808 25.464 97.0688 25.896C97.3568 26.304 97.7648 26.508 98.2928 26.508ZM111.607 30L107.431 9.192H112.687L114.595 23.196L116.395 9.192H121.615L117.403 30H111.607ZM130.33 30.36C128.794 30.36 127.51 30.084 126.478 29.532C125.446 28.956 124.666 28.128 124.138 27.048C123.61 25.944 123.346 24.624 123.346 23.088V16.104C123.346 14.52 123.61 13.2 124.138 12.144C124.666 11.064 125.458 10.248 126.514 9.696C127.57 9.12 128.842 8.832 130.33 8.832C131.914 8.832 133.198 9.12 134.182 9.696C135.166 10.272 135.886 11.112 136.342 12.216C136.822 13.32 137.062 14.664 137.062 16.248V19.884H128.71V23.916C128.71 24.516 128.77 25.008 128.89 25.392C129.034 25.776 129.226 26.052 129.466 26.22C129.706 26.364 130.006 26.436 130.366 26.436C130.702 26.436 130.99 26.364 131.23 26.22C131.494 26.052 131.686 25.8 131.806 25.464C131.926 25.128 131.986 24.684 131.986 24.132V22.152H137.026V23.88C137.026 25.992 136.45 27.6 135.298 28.704C134.146 29.808 132.49 30.36 130.33 30.36ZM128.71 17.292H131.986V15.24C131.986 14.64 131.926 14.16 131.806 13.8C131.686 13.416 131.494 13.152 131.23 13.008C130.99 12.84 130.678 12.756 130.294 12.756C129.934 12.756 129.634 12.84 129.394 13.008C129.178 13.176 129.01 13.476 128.89 13.908C128.77 14.316 128.71 14.904 128.71 15.672V17.292ZM140.589 30V0.839998H146.025V30H140.589Z" fill="#F77A40"/>
</svg>
